<svg id="visual" viewBox="0 0 900 600" width="900" height="600" xmlns="http://www.w3.org/2000/svg" xmlns:xlink="http://www.w3.org/1999/xlink" version="1.1"><path d="M574 600L590.7 585.7C607.3 571.3 640.7 542.7 670 514.2C699.3 485.7 724.7 457.3 714 428.8C703.3 400.3 656.7 371.7 652.5 343C648.3 314.3 686.7 285.7 711.7 257C736.7 228.3 748.3 199.7 747.2 171.2C746 142.7 732 114.3 730.3 85.8C728.7 57.3 739.3 28.7 744.7 14.3L750 0L900 0L900 14.3C900 28.7 900 57.3 900 85.8C900 114.3 900 142.7 900 171.2C900 199.7 900 228.3 900 257C900 285.7 900 314.3 900 343C900 371.7 900 400.3 900 428.8C900 457.3 900 485.7 900 514.2C900 542.7 900 571.3 900 585.7L900 600Z" fill="#ea691d" stroke-linecap="round" stroke-linejoin="miter"></path></svg>